<?xml version="1.0" encoding="utf-8"?>
<!-- Generator: Adobe Illustrator 13.0.0, SVG Export Plug-In . SVG Version: 6.00 Build 14948)  -->
<!DOCTYPE svg PUBLIC "-//W3C//DTD SVG 1.1//EN" "http://www.w3.org/Graphics/SVG/1.1/DTD/svg11.dtd">
<svg version="1.1" id="Layer_1" xmlns="http://www.w3.org/2000/svg" xmlns:xlink="http://www.w3.org/1999/xlink" x="0px" y="0px"
	 width="35.478px" height="58.82px" viewBox="0 0 35.478 58.82" enable-background="new 0 0 35.478 58.82" xml:space="preserve">
<g>
	<path fill="#FFE600" d="M28.839,47.189H6.639c-2.609,0-4.738-2.125-4.742-4.736V12.307C1.9,9.695,4.025,7.568,6.637,7.564h22.203
		c2.609,0.004,4.734,2.129,4.742,4.738v30.148C33.574,45.068,31.449,47.189,28.839,47.189L28.839,47.189z"/>
	<path fill="#2B555F" d="M28.839,0H6.639C2.975,0.008,0.007,2.975,0.002,6.639L0,23.4v19.051c0,0.002,0,0.006,0,0.006v9.727
		c0.007,3.662,2.975,6.631,6.639,6.637h22.201c3.664-0.006,6.631-2.975,6.637-6.637h0.002V6.639C35.47,2.975,32.503,0.008,28.839,0z
		 M6.639,3.793h22.201c1.438,0.004,2.635,1.115,2.809,2.512c-0.854-0.4-1.803-0.633-2.809-0.635L6.639,5.668
		C5.633,5.67,4.683,5.902,3.828,6.305C4.001,4.908,5.201,3.797,6.639,3.793z M31.683,52.184c-0.002,1.553-1.291,2.842-2.844,2.846
		H6.639c-1.553-0.004-2.844-1.293-2.846-2.846v-3.748c0.863,0.412,1.826,0.65,2.846,0.65h22.201c1.02,0,1.982-0.238,2.844-0.65
		V52.184z M31.683,42.451c-0.002,1.551-1.291,2.842-2.844,2.844H6.639c-1.553-0.002-2.844-1.293-2.846-2.844V12.307
		c0.002-1.551,1.293-2.842,2.846-2.844h22.201c1.553,0.002,2.842,1.293,2.844,2.844V42.451z M21.417,50.053h-7.357
		c-0.521,0-0.949,0.426-0.949,0.947v1.898c0,0.521,0.428,0.949,0.949,0.949h7.357c0.521,0,0.949-0.428,0.949-0.949V51
		C22.367,50.479,21.939,50.053,21.417,50.053z"/>
</g>
</svg>
