<?xml version="1.0" encoding="utf-8"?>
<!-- Generator: Adobe Illustrator 13.0.0, SVG Export Plug-In . SVG Version: 6.00 Build 14948)  -->
<!DOCTYPE svg PUBLIC "-//W3C//DTD SVG 1.1//EN" "http://www.w3.org/Graphics/SVG/1.1/DTD/svg11.dtd">
<svg version="1.1" id="Layer_1" xmlns="http://www.w3.org/2000/svg" xmlns:xlink="http://www.w3.org/1999/xlink" x="0px" y="0px"
	 width="45px" height="45px" viewBox="0 0 45 45" enable-background="new 0 0 45 45" xml:space="preserve">
<path fill="#FFFFFF" d="M26.576,19.238c-0.713,0-1.068,0.66-1.068,1.979v3.654c0.014,0.211,0.043,0.403,0.043,0.627
	c0,0.303-0.027,0.57-0.043,0.852v3.223c0,0.643,0.074,1.142,0.223,1.496c0.146,0.356,0.438,0.534,0.871,0.534
	c0.416,0,0.686-0.19,0.807-0.573c0.121-0.381,0.184-0.937,0.184-1.665v-8.096c0-0.659-0.063-1.163-0.184-1.51
	C27.287,19.412,27.01,19.238,26.576,19.238z M20.838,14.514c0-0.295-0.083-0.529-0.248-0.703c-0.165-0.174-0.395-0.26-0.689-0.26
	c-0.348,0-0.608,0.095-0.781,0.286c-0.173,0.191-0.26,0.452-0.26,0.781c0,0.729,0.417,1.484,1.25,2.265l0.766,0.735v-1.569h-0.011
	L20.838,14.514z M22.5,0C10.075,0,0,10.075,0,22.502C0,34.929,10.075,45,22.5,45C34.928,45,45,34.929,45,22.502
	C45,10.075,34.928,0,22.5,0z M32.197,28.322c0,1.493-0.086,2.713-0.26,3.658s-0.555,1.709-1.145,2.29
	c-0.59,0.582-1.484,0.872-2.682,0.872c-1.145,0-2.014-0.32-2.604-0.963v4.556h-4.632v-6.564c-0.18,0.012-0.341,0.044-0.532,0.044
	c-2.03,0-3.497-0.504-4.398-1.511c-0.903-1.005-1.354-2.628-1.354-4.867V23.65h4.398v2.785c0,1.111,0.355,1.666,1.067,1.666
	c0.39,0,0.66-0.115,0.818-0.34v-2.959c-0.005-0.015-0.006-0.033-0.011-0.046c-0.174-0.478-0.395-0.876-0.664-1.197
	c-0.27-0.321-0.751-0.82-1.445-1.497l-1.926-1.926c-1.493-1.458-2.238-3.072-2.238-4.842c0-1.909,0.438-3.362,1.314-4.36
	c0.876-0.998,2.156-1.497,3.839-1.497c2.013,0,3.462,0.534,4.347,1.601s1.328,2.737,1.328,5.011h-0.01l0.027,0.921
	c0.66-0.815,1.641-1.298,2.805-1.298c1.475,0,2.502,0.495,3.084,1.484c0.582,0.989,0.871,2.36,0.871,4.113V28.322z"/>
</svg>
