<?xml version="1.0" encoding="utf-8"?>
<!-- Generator: Adobe Illustrator 13.0.0, SVG Export Plug-In . SVG Version: 6.00 Build 14948)  -->
<!DOCTYPE svg PUBLIC "-//W3C//DTD SVG 1.1//EN" "http://www.w3.org/Graphics/SVG/1.1/DTD/svg11.dtd">
<svg version="1.1" id="Layer_1" xmlns="http://www.w3.org/2000/svg" xmlns:xlink="http://www.w3.org/1999/xlink" x="0px" y="0px"
	 width="60px" height="45.04px" viewBox="0 0 60 45.04" enable-background="new 0 0 60 45.04" xml:space="preserve">
<g>
	<path fill="#FFE600" d="M53.392,33.384H53.39h-0.002H6.615c-2.598-0.006-4.715-2.121-4.725-4.716L1.892,6.615
		c0.006-2.602,2.124-4.719,4.719-4.726h46.777c2.599,0.006,4.715,2.124,4.721,4.721v22.05
		C58.103,31.261,55.986,33.378,53.392,33.384L53.392,33.384z"/>
	<path fill="#2B555F" d="M53.388,0H6.615C2.962,0.007,0.008,2.964,0,6.615v22.043c0.008,3.653,2.962,6.606,6.615,6.614h18.702v5.984
		h-5.436c-0.52,0-0.943,0.427-0.943,0.946v1.892c0,0.52,0.424,0.945,0.943,0.945h20.24c0.52,0,0.944-0.426,0.944-0.945v-1.892
		c0-0.52-0.425-0.946-0.944-0.946h-5.435v-5.984h18.701c3.649-0.008,6.606-2.961,6.612-6.614l0,0V6.615
		C59.994,2.964,57.037,0.007,53.388,0z M30.905,41.257h-1.809v-5.984h1.809V41.257z M56.22,28.658
		c-0.004,1.55-1.288,2.834-2.832,2.836H6.615c-1.547-0.002-2.832-1.286-2.837-2.836L3.779,6.615
		c0.004-1.547,1.289-2.832,2.835-2.835h46.773c1.544,0.004,2.828,1.288,2.832,2.835V28.658z"/>
</g>
</svg>
