<?xml version="1.0" encoding="utf-8"?>
<!-- Generator: Adobe Illustrator 13.0.0, SVG Export Plug-In . SVG Version: 6.00 Build 14948)  -->
<!DOCTYPE svg PUBLIC "-//W3C//DTD SVG 1.1//EN" "http://www.w3.org/Graphics/SVG/1.1/DTD/svg11.dtd">
<svg version="1.1" id="Layer_1" xmlns="http://www.w3.org/2000/svg" xmlns:xlink="http://www.w3.org/1999/xlink" x="0px" y="0px"
	 width="55.002px" height="55px" viewBox="0 0 55.002 55" enable-background="new 0 0 55.002 55" xml:space="preserve">
<g>
	<path fill="#FFE600" d="M48.365,47.256h-0.002h-0.002h-1.58h-1.893l-0.004-1.893c-0.006-2.609-2.133-4.738-4.744-4.744
		l-25.283-0.002c-2.605,0.008-4.734,2.137-4.742,4.746l-0.004,1.893H8.219h-1.58c-2.611-0.01-4.736-2.133-4.744-4.738V28.369
		c0.008-2.609,2.133-4.734,4.74-4.742h41.727c2.611,0.008,4.736,2.133,4.744,4.738v14.146
		C53.098,45.123,50.973,47.246,48.365,47.256L48.365,47.256z"/>
	<path fill="#2B555F" d="M48.361,21.732h-4.898V6.639C43.457,2.975,40.488,0.006,36.826,0H18.174
		c-3.662,0.006-6.629,2.975-6.637,6.639v15.094H6.639C2.975,21.738,0.006,24.705,0,28.371v14.143
		c0.006,3.662,2.975,6.631,6.639,6.637h1.633c0.396,3.291,3.188,5.842,6.586,5.848L40.145,55c3.395-0.008,6.189-2.559,6.584-5.85
		h1.633c3.666-0.006,6.631-2.975,6.641-6.637V28.371C54.992,24.705,52.027,21.738,48.361,21.732z M15.33,6.639
		c0.002-1.551,1.293-2.842,2.844-2.846h18.652c1.553,0.004,2.842,1.295,2.844,2.846v15.094H15.33V6.639z M40.145,51.207
		l-25.287-0.002c-1.277-0.002-2.365-0.881-2.717-2.055c-0.076-0.252-0.131-0.514-0.131-0.789v-3c0-0.002,0-0.002,0-0.002
		c0.006-1.551,1.295-2.842,2.848-2.844h25.287c1.551,0.002,2.84,1.293,2.844,2.844c0,0,0,0,0,0.002v3
		c0,0.275-0.053,0.537-0.129,0.789C42.508,50.324,41.422,51.203,40.145,51.207z M51.209,42.514c-0.004,1.551-1.295,2.84-2.848,2.846
		h-1.58c-0.008-3.662-2.975-6.629-6.637-6.637l-25.287-0.002c-3.666,0.01-6.631,2.977-6.639,6.639h-1.58
		c-1.553-0.006-2.842-1.295-2.848-2.846V28.371c0.006-1.553,1.295-2.842,2.848-2.848h41.723c1.553,0.006,2.844,1.295,2.848,2.848
		V42.514z"/>
</g>
</svg>
