<?xml version="1.0" encoding="utf-8"?>
<!-- Generator: Adobe Illustrator 13.0.0, SVG Export Plug-In . SVG Version: 6.00 Build 14948)  -->
<!DOCTYPE svg PUBLIC "-//W3C//DTD SVG 1.1//EN" "http://www.w3.org/Graphics/SVG/1.1/DTD/svg11.dtd">
<svg version="1.1" id="Layer_1" xmlns="http://www.w3.org/2000/svg" xmlns:xlink="http://www.w3.org/1999/xlink" x="0px" y="0px"
	 width="48.998px" height="60px" viewBox="0 0 48.998 60" enable-background="new 0 0 48.998 60" xml:space="preserve">
<g>
	<path fill="#FFE600" d="M33.952,16.74L33.952,16.74H33.95H6.602c-2.597-0.006-4.711-2.121-4.716-4.713V6.604
		C1.891,4.005,4.007,1.892,6.6,1.886h27.35c2.595,0.006,4.71,2.119,4.716,4.714l-0.002,5.423
		C38.66,14.619,36.546,16.734,33.952,16.74L33.952,16.74z"/>
	<path fill="#2B555F" d="M42.811,6.289c-0.838-0.002-1.615-0.002-2.277-0.002C40.362,2.791,37.487,0.008,33.95,0H6.603
		C2.957,0.008,0.008,2.958,0,6.604v5.419c0.008,3.646,2.957,6.594,6.603,6.604H33.95c3.642-0.01,6.594-2.958,6.6-6.604v-1.964h2.262
		c1.256,0.002,2.415,1.123,2.415,2.593c0.092,1.498-1.569,3.98-3.191,4.572L23.851,24.88c-3.2,1.444-5.414,4.774-5.5,8.284v2.074
		c-2.824,0.751-4.907,3.313-4.913,6.372v11.789c0.007,3.643,2.958,6.595,6.602,6.599V60h0.471c3.644-0.006,6.594-2.958,6.6-6.601
		V41.61c-0.004-3.086-2.126-5.668-4.99-6.392v-2.055c-0.086-1.677,1.614-4.238,3.193-4.807L43.5,20.701
		c3.156-1.422,5.408-4.619,5.498-8.049C48.993,9.199,46.287,6.303,42.811,6.289z M36.78,12.022c-0.004,1.544-1.287,2.826-2.83,2.83
		H6.603c-1.544-0.004-2.826-1.286-2.83-2.83V6.604c0.004-1.544,1.285-2.83,2.83-2.832H33.95c1.543,0.002,2.826,1.288,2.83,2.832
		l-0.002,5.419H36.78z M23.339,41.61v11.789c-0.002,1.541-1.285,2.827-2.828,2.829H20.04c-1.544-0.002-2.827-1.288-2.831-2.829
		V41.61c0.004-1.544,1.287-2.825,2.831-2.829l0.471,0.002C22.054,38.785,23.337,40.066,23.339,41.61z"/>
</g>
</svg>
